<svg xmlns="http://www.w3.org/2000/svg" xmlns:xlink="http://www.w3.org/1999/xlink" aria-hidden="true" style="position: absolute; width: 0; height: 0; overflow: hidden;" version="1.1">
    <symbol  xmlns="http://www.w3.org/2000/svg" viewBox="0 0 20 20" id="arrow-left-rounded">
        <path fill="currentColor" d="M8.83289 10.5917C8.75478 10.5142 8.69279 10.4221 8.65048 10.3205C8.60817 10.219 8.58639 10.11 8.58639 10C8.58639 9.89001 8.60817 9.78109 8.65048 9.67954C8.69279 9.57799 8.75478 9.48582 8.83289 9.40835L12.6579 5.59168C12.736 5.51421 12.798 5.42204 12.8403 5.32049C12.8826 5.21894 12.9044 5.11002 12.9044 5.00001C12.9044 4.89 12.8826 4.78108 12.8403 4.67953C12.798 4.57798 12.736 4.48581 12.6579 4.40834C12.5018 4.25313 12.2905 4.16602 12.0704 4.16602C11.8502 4.16602 11.639 4.25313 11.4829 4.40834L7.65789 8.23335C7.18972 8.7021 6.92676 9.33752 6.92676 10C6.92676 10.6625 7.18972 11.2979 7.65789 11.7667L11.4829 15.5917C11.6381 15.7457 11.8476 15.8324 12.0662 15.8334C12.1759 15.834 12.2846 15.813 12.3861 15.7715C12.4877 15.73 12.58 15.6689 12.6579 15.5917C12.736 15.5142 12.798 15.4221 12.8403 15.3205C12.8826 15.219 12.9044 15.11 12.9044 15C12.9044 14.89 12.8826 14.7811 12.8403 14.6795C12.798 14.578 12.736 14.4858 12.6579 14.4084L8.83289 10.5917Z"></path>
    </symbol>
    <symbol  xmlns="http://www.w3.org/2000/svg" viewBox="0 0 20 20" id="arrow-right-rounded">
        <path fill="currentColor" d="M11.1671 10.5917C11.2452 10.5142 11.3072 10.4221 11.3495 10.3205C11.3918 10.219 11.4136 10.11 11.4136 10C11.4136 9.89001 11.3918 9.78109 11.3495 9.67954C11.3072 9.57799 11.2452 9.48582 11.1671 9.40835L7.34211 5.59168C7.264 5.51421 7.20201 5.42204 7.1597 5.32049C7.11739 5.21894 7.09561 5.11002 7.09561 5.00001C7.09561 4.89 7.11739 4.78108 7.1597 4.67953C7.20201 4.57798 7.264 4.48581 7.34211 4.40834C7.49824 4.25313 7.70945 4.16602 7.92961 4.16602C8.14976 4.16602 8.36097 4.25313 8.51711 4.40834L12.3421 8.23335C12.8103 8.7021 13.0732 9.33752 13.0732 10C13.0732 10.6625 12.8103 11.2979 12.3421 11.7667L8.51711 15.5917C8.36189 15.7457 8.15239 15.8324 7.93377 15.8334C7.8241 15.834 7.71538 15.813 7.61385 15.7715C7.51232 15.73 7.41997 15.6689 7.34211 15.5917C7.264 15.5142 7.20201 15.4221 7.1597 15.3205C7.11739 15.219 7.09561 15.11 7.09561 15C7.09561 14.89 7.11739 14.7811 7.1597 14.6795C7.20201 14.578 7.264 14.4858 7.34211 14.4084L11.1671 10.5917Z" ></path>
    </symbol>
    <symbol  xmlns="http://www.w3.org/2000/svg" viewBox="0 0 15 15" id="arrow-right">
        <path fill="currentColor" d="M7.5 14L14 7.5M14 7.5L7.5 1M14 7.5H1" stroke="#242424" stroke-width="1.3" stroke-linecap="round" stroke-linejoin="round"></path>
    </symbol>
    <symbol  xmlns="http://www.w3.org/2000/svg" viewBox="0 0 33 32" id="arrow-up">
        <path fill="currentColor" fill-rule="evenodd" clip-rule="evenodd" d="M17.6192 5.47776L17.6192 31.0059L14.9033 31.0059L14.9033 5.47776L2.13919 18.2419L0.21875 16.3214L16.2612 0.278928L32.3037 16.3214L30.3833 18.2419L17.6192 5.47776Z"  stroke="#242424" stroke-width="0.3"></path>
    </symbol>
    <symbol  xmlns="http://www.w3.org/2000/svg" viewBox="0 0 31 24" id="double-arrow-left">
        <path fill="currentColor" d="M9.83289 12.5917C9.75478 12.5142 9.69279 12.4221 9.65048 12.3205C9.60817 12.219 9.58639 12.11 9.58639 12C9.58639 11.89 9.60817 11.7811 9.65048 11.6795C9.69279 11.578 9.75478 11.4858 9.83289 11.4084L13.6579 7.59168C13.736 7.51421 13.798 7.42204 13.8403 7.32049C13.8826 7.21894 13.9044 7.11002 13.9044 7.00001C13.9044 6.89 13.8826 6.78108 13.8403 6.67953C13.798 6.57798 13.736 6.48581 13.6579 6.40834C13.5018 6.25313 13.2905 6.16602 13.0704 6.16602C12.8502 6.16602 12.639 6.25313 12.4829 6.40834L8.65789 10.2334C8.18972 10.7021 7.92676 11.3375 7.92676 12C7.92676 12.6625 8.18972 13.2979 8.65789 13.7667L12.4829 17.5917C12.6381 17.7457 12.8476 17.8324 13.0662 17.8334C13.1759 17.834 13.2846 17.813 13.3861 17.7715C13.4877 17.73 13.58 17.6689 13.6579 17.5917C13.736 17.5142 13.798 17.4221 13.8403 17.3205C13.8826 17.219 13.9044 17.11 13.9044 17C13.9044 16.89 13.8826 16.7811 13.8403 16.6795C13.798 16.578 13.736 16.4858 13.6579 16.4084L9.83289 12.5917Z" ></path>
        <path fill="currentColor" d="M16.8329 12.5917C16.7548 12.5142 16.6928 12.4221 16.6505 12.3205C16.6082 12.219 16.5864 12.11 16.5864 12C16.5864 11.89 16.6082 11.7811 16.6505 11.6795C16.6928 11.578 16.7548 11.4858 16.8329 11.4084L20.6579 7.59168C20.736 7.51421 20.798 7.42204 20.8403 7.32049C20.8826 7.21894 20.9044 7.11002 20.9044 7.00001C20.9044 6.89 20.8826 6.78108 20.8403 6.67953C20.798 6.57798 20.736 6.48581 20.6579 6.40834C20.5018 6.25313 20.2905 6.16602 20.0704 6.16602C19.8502 6.16602 19.639 6.25313 19.4829 6.40834L15.6579 10.2334C15.1897 10.7021 14.9268 11.3375 14.9268 12C14.9268 12.6625 15.1897 13.2979 15.6579 13.7667L19.4829 17.5917C19.6381 17.7457 19.8476 17.8324 20.0662 17.8334C20.1759 17.834 20.2846 17.813 20.3861 17.7715C20.4877 17.73 20.58 17.6689 20.6579 17.5917C20.736 17.5142 20.798 17.4221 20.8403 17.3205C20.8826 17.219 20.9044 17.11 20.9044 17C20.9044 16.89 20.8826 16.7811 20.8403 16.6795C20.798 16.578 20.736 16.4858 20.6579 16.4084L16.8329 12.5917Z" ></path>
    </symbol>
    <symbol  xmlns="http://www.w3.org/2000/svg" viewBox="0 0 31 24" id="double-arrow-right">
        <path fill="currentColor" d="M21.1671 12.5917C21.2452 12.5142 21.3072 12.4221 21.3495 12.3205C21.3918 12.219 21.4136 12.11 21.4136 12C21.4136 11.89 21.3918 11.7811 21.3495 11.6795C21.3072 11.578 21.2452 11.4858 21.1671 11.4084L17.3421 7.59168C17.264 7.51421 17.202 7.42204 17.1597 7.32049C17.1174 7.21894 17.0956 7.11002 17.0956 7.00001C17.0956 6.89 17.1174 6.78108 17.1597 6.67953C17.202 6.57798 17.264 6.48581 17.3421 6.40834C17.4982 6.25313 17.7095 6.16602 17.9296 6.16602C18.1498 6.16602 18.361 6.25313 18.5171 6.40834L22.3421 10.2334C22.8103 10.7021 23.0732 11.3375 23.0732 12C23.0732 12.6625 22.8103 13.2979 22.3421 13.7667L18.5171 17.5917C18.3619 17.7457 18.1524 17.8324 17.9338 17.8334C17.8241 17.834 17.7154 17.813 17.6139 17.7715C17.5123 17.73 17.42 17.6689 17.3421 17.5917C17.264 17.5142 17.202 17.4221 17.1597 17.3205C17.1174 17.219 17.0956 17.11 17.0956 17C17.0956 16.89 17.1174 16.7811 17.1597 16.6795C17.202 16.578 17.264 16.4858 17.3421 16.4084L21.1671 12.5917Z" ></path>
        <path fill="currentColor" d="M14.1671 12.5917C14.2452 12.5142 14.3072 12.4221 14.3495 12.3205C14.3918 12.219 14.4136 12.11 14.4136 12C14.4136 11.89 14.3918 11.7811 14.3495 11.6795C14.3072 11.578 14.2452 11.4858 14.1671 11.4084L10.3421 7.59168C10.264 7.51421 10.202 7.42204 10.1597 7.32049C10.1174 7.21894 10.0956 7.11002 10.0956 7.00001C10.0956 6.89 10.1174 6.78108 10.1597 6.67953C10.202 6.57798 10.264 6.48581 10.3421 6.40834C10.4982 6.25313 10.7095 6.16602 10.9296 6.16602C11.1498 6.16602 11.361 6.25313 11.5171 6.40834L15.3421 10.2334C15.8103 10.7021 16.0732 11.3375 16.0732 12C16.0732 12.6625 15.8103 13.2979 15.3421 13.7667L11.5171 17.5917C11.3619 17.7457 11.1524 17.8324 10.9338 17.8334C10.8241 17.834 10.7154 17.813 10.6139 17.7715C10.5123 17.73 10.42 17.6689 10.3421 17.5917C10.264 17.5142 10.202 17.4221 10.1597 17.3205C10.1174 17.219 10.0956 17.11 10.0956 17C10.0956 16.89 10.1174 16.7811 10.1597 16.6795C10.202 16.578 10.264 16.4858 10.3421 16.4084L14.1671 12.5917Z" ></path>
    </symbol>
    <symbol xmlns="http://www.w3.org/2000/svg" viewBox="0 0 28 28" id="facebook">
        <path d="M17.0804 4.06011C17.2904 4.06011 17.5004 4.06011 17.9204 4.06011V7.21011C17.7104 7.21011 17.2904 7.21011 16.8704 7.21011C16.4504 7.21011 16.0304 7.21011 15.8204 7.42011C15.6104 7.63011 15.6104 7.84011 15.6104 8.33011C15.6104 8.75011 15.6104 9.03011 15.6104 9.45011H17.9204V12.1101H15.6104V23.6601H12.0404V12.0401H10.1504V9.38011H12.0404V8.47011C12.0404 6.93011 12.2504 5.81011 12.6704 5.32011C13.3004 4.41011 14.5604 3.99011 16.4504 3.99011C16.6604 4.06011 16.8704 4.06011 17.0804 4.06011Z"></path>

    </symbol>
    <symbol  xmlns="http://www.w3.org/2000/svg" viewBox="0 0 32 32" id="favicon">
        <circle cx="16" cy="16" r="16" ></circle>
        <path fill="currentColor" d="M10.6 11.7143H9.4C9.0675 11.7143 8.8 12.0009 8.8 12.3571V15.1429H8.2C8.09 15.1429 8 15.2393 8 15.3571V16.6429C8 16.7607 8.09 16.8571 8.2 16.8571H8.8V19.6429C8.8 19.9991 9.0675 20.2857 9.4 20.2857H10.6C10.9325 20.2857 11.2 19.9991 11.2 19.6429V12.3571C11.2 12.0009 10.9325 11.7143 10.6 11.7143ZM23.8 15.1429H23.2V12.3571C23.2 12.0009 22.9325 11.7143 22.6 11.7143H21.4C21.0675 11.7143 20.8 12.0009 20.8 12.3571V19.6429C20.8 19.9991 21.0675 20.2857 21.4 20.2857H22.6C22.9325 20.2857 23.2 19.9991 23.2 19.6429V16.8571H23.8C23.91 16.8571 24 16.7607 24 16.6429V15.3571C24 15.2393 23.91 15.1429 23.8 15.1429ZM19.4 10H18.2C17.8675 10 17.6 10.2866 17.6 10.6429V15.1429H14.4V10.6429C14.4 10.2866 14.1325 10 13.8 10H12.6C12.2675 10 12 10.2866 12 10.6429V21.3571C12 21.7134 12.2675 22 12.6 22H13.8C14.1325 22 14.4 21.7134 14.4 21.3571V16.8571H17.6V21.3571C17.6 21.7134 17.8675 22 18.2 22H19.4C19.7325 22 20 21.7134 20 21.3571V10.6429C20 10.2866 19.7325 10 19.4 10Z" ></path>
    </symbol>
    <symbol  xmlns="http://www.w3.org/2000/svg" viewBox="0 0 20 20" id="fluent-food">
        <path fill="currentColor" d="M4.6 5.71429H3.4C3.0675 5.71429 2.8 6.00089 2.8 6.35714V9.14286H2.2C2.09 9.14286 2 9.23929 2 9.35714V10.6429C2 10.7607 2.09 10.8571 2.2 10.8571H2.8V13.6429C2.8 13.9991 3.0675 14.2857 3.4 14.2857H4.6C4.9325 14.2857 5.2 13.9991 5.2 13.6429V6.35714C5.2 6.00089 4.9325 5.71429 4.6 5.71429ZM17.8 9.14286H17.2V6.35714C17.2 6.00089 16.9325 5.71429 16.6 5.71429H15.4C15.0675 5.71429 14.8 6.00089 14.8 6.35714V13.6429C14.8 13.9991 15.0675 14.2857 15.4 14.2857H16.6C16.9325 14.2857 17.2 13.9991 17.2 13.6429V10.8571H17.8C17.91 10.8571 18 10.7607 18 10.6429V9.35714C18 9.23929 17.91 9.14286 17.8 9.14286ZM13.4 4H12.2C11.8675 4 11.6 4.28661 11.6 4.64286V9.14286H8.4V4.64286C8.4 4.28661 8.1325 4 7.8 4H6.6C6.2675 4 6 4.28661 6 4.64286V15.3571C6 15.7134 6.2675 16 6.6 16H7.8C8.1325 16 8.4 15.7134 8.4 15.3571V10.8571H11.6V15.3571C11.6 15.7134 11.8675 16 12.2 16H13.4C13.7325 16 14 15.7134 14 15.3571V4.64286C14 4.28661 13.7325 4 13.4 4Z" ></path>
    </symbol>
    <symbol  xmlns="http://www.w3.org/2000/svg" viewBox="0 0 20 20" id="heart">
        <path fill="currentColor" d="M17.3671 3.84172C16.9415 3.41589 16.4361 3.0781 15.8799 2.84763C15.3237 2.61716 14.7275 2.49854 14.1254 2.49854C13.5234 2.49854 12.9272 2.61716 12.371 2.84763C11.8147 3.0781 11.3094 3.41589 10.8838 3.84172L10.0004 4.72506L9.11709 3.84172C8.25735 2.98198 7.09128 2.49898 5.87542 2.49898C4.65956 2.49898 3.4935 2.98198 2.63376 3.84172C1.77401 4.70147 1.29102 5.86753 1.29102 7.08339C1.29102 8.29925 1.77401 9.46531 2.63376 10.3251L3.51709 11.2084L10.0004 17.6917L16.4838 11.2084L17.3671 10.3251C17.7929 9.89943 18.1307 9.39407 18.3612 8.83785C18.5917 8.28164 18.7103 7.68546 18.7103 7.08339C18.7103 6.48132 18.5917 5.88514 18.3612 5.32893C18.1307 4.77271 17.7929 4.26735 17.3671 3.84172Z"  stroke-width="1.5" stroke-linecap="round" stroke-linejoin="round"></path>
    </symbol>
    <symbol xmlns="http://www.w3.org/2000/svg" viewBox="0 0 28 28" id="instagram">

        <path d="M25.1277 9.41152C25.114 8.47146 24.9398 7.53885 24.6065 6.65964C24.0231 5.15827 22.8352 3.97109 21.3313 3.38991C20.4618 3.06332 19.5426 2.88822 18.6122 2.86835C17.4155 2.81495 17.0361 2.80005 13.9986 2.80005C10.961 2.80005 10.5716 2.80005 9.38372 2.86835C8.45454 2.88822 7.5353 3.06332 6.66582 3.38991C5.16196 3.97109 3.97279 5.15827 3.39065 6.65964C3.06351 7.52767 2.88688 8.44538 2.86946 9.37302C2.81598 10.5689 2.7998 10.9477 2.7998 13.9802C2.7998 17.0127 2.7998 17.4002 2.86946 18.5873C2.88812 19.5162 3.06351 20.4327 3.39065 21.3032C3.97404 22.8033 5.16195 23.9905 6.66706 24.5717C7.53281 24.9095 8.45205 25.1007 9.38497 25.1305C10.5828 25.1839 10.9622 25.2001 13.9998 25.2001C17.0374 25.2001 17.4267 25.2001 18.6146 25.1305C19.5438 25.1119 20.4631 24.9368 21.3338 24.6102C22.8377 24.0278 24.0256 22.8406 24.609 21.3405C24.9361 20.4712 25.1115 19.5547 25.1301 18.6246C25.1836 17.43 25.1998 17.0512 25.1998 14.0174C25.1973 10.9849 25.1973 10.5999 25.1277 9.41152ZM13.9911 19.7149C10.8142 19.7149 8.24059 17.1456 8.24059 13.974C8.24059 10.8024 10.8142 8.23302 13.9911 8.23302C17.1655 8.23302 19.7416 10.8024 19.7416 13.974C19.7416 17.1456 17.1655 19.7149 13.9911 19.7149ZM19.9705 9.35936C19.2279 9.35936 18.6296 8.7608 18.6296 8.02067C18.6296 7.28055 19.2279 6.68199 19.9705 6.68199C20.7106 6.68199 21.3102 7.28055 21.3102 8.02067C21.3102 8.7608 20.7106 9.35936 19.9705 9.35936Z"></path>
        <path d="M13.9928 17.4789C15.9277 17.4789 17.4963 15.9104 17.4963 13.9754C17.4963 12.0405 15.9277 10.4719 13.9928 10.4719C12.0578 10.4719 10.4893 12.0405 10.4893 13.9754C10.4893 15.9104 12.0578 17.4789 13.9928 17.4789Z"></path>

    </symbol>
    <symbol xmlns="http://www.w3.org/2000/svg" viewBox="0 0 132 24" id="logo">
        <path fill="currentColor" d="M4.98 13.28L0 5H2.98L6.32 10.74H6.36L9.7 5H12.68L7.7 13.28V19H4.98V13.28Z"></path>
        <path fill="currentColor" d="M12.6703 16.7V7.3L14.9703 5H22.1703L24.4703 7.3V16.7L22.1703 19H14.9703L12.6703 16.7ZM20.7303 16.68L21.7503 15.66V8.34L20.7303 7.32H16.4103L15.3903 8.34V15.66L16.4103 16.68H20.7303Z"></path>
        <path fill="currentColor" d="M26.3742 16.6V5H29.0942V15.66L30.1142 16.68H34.0342L35.0542 15.66V5H37.7742V16.6L35.3742 19H28.7742L26.3742 16.6Z"></path>
        <path fill="currentColor" d="M50.8781 14.36V19H48.1581V14.98L46.9581 13.64H42.5981V19H39.8781V5H48.6581L50.7981 7.16V11.4L49.4381 12.78L50.8781 14.36ZM42.5981 11.4H47.4181L48.1181 10.7V7.98L47.4181 7.28H42.5981V11.4Z"></path>
        <path fill="currentColor" d="M57.8234 5H67.9434V7.3H60.5434V10.84H67.3634V13.1H60.5434V16.7H67.9434V19H57.8234V5Z"></path>
        <path fill="currentColor" d="M69.4523 5H71.8923L78.1323 14.5H78.1723V5H80.7923V19H78.3523L72.1123 9.52H72.0723V19H69.4523V5Z"></path>
        <path fill="currentColor" d="M82.8977 5H93.0177V7.3H85.6177V10.84H92.4377V13.1H85.6177V16.7H93.0177V19H82.8977V5Z"></path>
        <path fill="currentColor" d="M105.527 14.36V19H102.807V14.98L101.607 13.64H97.2466V19H94.5266V5H103.307L105.447 7.16V11.4L104.087 12.78L105.527 14.36ZM97.2466 11.4H102.067L102.767 10.7V7.98L102.067 7.28H97.2466V11.4Z"></path>
        <path fill="currentColor" d="M107.323 16.7V7.3L109.623 5H116.583L118.843 7.26V9.4H116.123V8.26L115.183 7.32H111.063L110.043 8.34V15.66L111.063 16.68H115.223L116.203 15.7V13.52H113.203V11.2H118.843V16.7L116.543 19H109.623L107.323 16.7Z"></path>
        <path fill="currentColor" d="M123.828 13.28L118.848 5H121.828L125.168 10.74H125.208L128.548 5H131.528L126.548 13.28V19H123.828V13.28Z"></path>
    </symbol>
    <symbol  xmlns="http://www.w3.org/2000/svg" viewBox="0 0 24 24" id="quote">
        <path fill="currentColor" d="M6.15077 13.1014C7.31014 12.642 8.23983 12.7623 8.93984 13.4623C9.63984 14.1623 9.84764 15.2779 9.56326 16.8092C9.34452 17.9467 8.86328 18.8217 8.11952 19.4342C7.39764 20.0248 6.55546 20.3201 5.59296 20.3201C4.28045 20.3201 3.37265 19.817 2.86952 18.8107C2.3664 17.7826 2.26796 16.4045 2.57421 14.6764C2.7492 13.7357 3.03358 12.7842 3.42732 11.8217C3.82109 10.8592 4.34609 9.87481 5.00232 8.86856C5.65858 7.86232 6.51171 6.9873 7.56171 6.24356C8.61171 5.4998 9.77108 5.01856 11.0398 4.7998L10.7117 8.27792C9.63984 8.49668 8.68827 9.05449 7.85703 9.95137C7.02576 10.8264 6.45701 11.8764 6.15077 13.1014ZM16.0273 13.1014C17.1867 12.642 18.1164 12.7623 18.8164 13.4623C19.5164 14.1623 19.7242 15.2779 19.4398 16.8092C19.2211 17.9467 18.7398 18.8217 17.9961 19.4342C17.2742 20.0248 16.432 20.3201 15.4695 20.3201C14.157 20.3201 13.2492 19.817 12.7461 18.8107C12.243 17.7826 12.1445 16.4045 12.4508 14.6764C12.6258 13.7357 12.9102 12.7842 13.3039 11.8217C13.6976 10.8592 14.2226 9.87481 14.8789 8.86856C15.5352 7.86232 16.3883 6.9873 17.4383 6.24356C18.4883 5.4998 19.6477 5.01856 20.9164 4.7998L20.5883 8.27792C19.5164 8.49668 18.5648 9.05449 17.7336 9.95137C16.9023 10.8264 16.3336 11.8764 16.0273 13.1014Z" ></path>
    </symbol>
    <symbol  xmlns="http://www.w3.org/2000/svg" viewBox="0 0 18 18" id="remove">
        <path fill="currentColor" d="M12.75 5.25L5.25 12.75M5.25 5.25L12.75 12.75" stroke="#242424" stroke-width="1.5" stroke-linecap="round" stroke-linejoin="round"></path>
    </symbol>
    <symbol  xmlns="http://www.w3.org/2000/svg" viewBox="0 0 28 32" id="running">
        <path fill="currentColor" d="M17.7293 5.90698C17.4611 5.59399 16.9834 5.55284 16.6631 5.81384L14.5637 7.53692L13.5983 5.19977C13.564 5.11205 13.5119 5.03841 13.452 4.97342C13.2547 4.54455 12.9122 4.17633 12.44 3.96297C12.235 3.872 12.0233 3.82326 11.8116 3.79944C11.765 3.77561 11.7229 3.7442 11.6697 3.72796L7.9754 2.72184C7.76813 2.6666 7.55975 2.70234 7.38905 2.79981C7.18621 2.86696 7.0122 3.011 6.92907 3.22002L5.53802 6.71491C5.38728 7.09505 5.58014 7.52392 5.9703 7.67338C6.35824 7.82067 6.79827 7.63114 6.95012 7.24992L8.12503 4.29871L9.80759 4.75574C9.76657 4.82072 9.72224 4.88137 9.68899 4.95068L7.53204 9.51884C7.501 9.58598 7.48438 9.65421 7.46221 9.72353L4.84084 14.0177L0.453779 15.4516C-0.0427858 15.8144 -0.148084 16.4978 0.218797 16.983C0.587895 17.4692 1.28951 17.5721 1.78497 17.2137L6.274 15.7029C6.41144 15.6054 6.5112 15.4776 6.58657 15.34C6.6431 15.2816 6.70738 15.235 6.75061 15.1624L8.31346 12.6022L11.0878 14.9123L8.11949 18.1808C7.71049 18.6313 7.7515 19.3255 8.21481 19.7241C8.67702 20.1259 9.38528 20.0836 9.7965 19.6309L13.5008 15.5534C13.6161 15.4278 13.6848 15.2826 13.7313 15.131C13.759 15.0487 13.759 14.9632 13.7657 14.8776C13.7657 14.8343 13.7823 14.7953 13.779 14.7552C13.769 14.4563 13.6449 14.1661 13.3944 13.9592L10.8417 11.8322C11.0257 11.661 11.182 11.4574 11.2951 11.2181L12.9488 7.71887L13.4786 9.09754C13.5008 9.21992 13.5429 9.34014 13.6316 9.44086C13.7114 9.534 13.8134 9.59573 13.922 9.63905C13.9331 9.64447 13.9464 9.64555 13.9597 9.6488C14.0284 9.67263 14.0982 9.69537 14.1703 9.69862C14.2556 9.7062 14.3421 9.69537 14.4296 9.67154C14.4318 9.67046 14.4329 9.67046 14.4329 9.67046C14.4562 9.66504 14.4795 9.66938 14.5028 9.65963C14.6258 9.61414 14.72 9.53725 14.8009 9.44736L17.8136 6.94884C18.1339 6.68567 17.9987 6.21997 17.7293 5.90698Z" />
        <path fill="currentColor" d="M13.9191 4.12629C15.0853 4.12629 16.0306 3.20259 16.0306 2.06314C16.0306 0.923701 15.0853 0 13.9191 0C12.753 0 11.8076 0.923701 11.8076 2.06314C11.8076 3.20259 12.753 4.12629 13.9191 4.12629Z" />
    </symbol>
    <symbol  xmlns="http://www.w3.org/2000/svg" viewBox="9 9 18 18" id="search">
        <path fill="currentColor" d="M8.25 14.25C11.5637 14.25 14.25 11.5637 14.25 8.25C14.25 4.93629 11.5637 2.25 8.25 2.25C4.93629 2.25 2.25 4.93629 2.25 8.25C2.25 11.5637 4.93629 14.25 8.25 14.25Z" stroke="#242424" stroke-width="1.5" stroke-linecap="round" stroke-linejoin="round"></path>
        <path fill="currentColor" d="M15.7498 15.75L12 .4873 12.4875" stroke="#242424" stroke-width="1.5" stroke-linecap="round" stroke-linejoin="round"></path>
    </symbol>
    <symbol xmlns="http://www.w3.org/2000/svg" viewBox="0 0 14 13" id="Star">
        <path fill="currentColor" d="M6.04894 0.927052C6.3483 0.0057416 7.6517 0.00574088 7.95106 0.927052L8.79611 3.52786C8.92999 3.93989 9.31394 4.21885 9.74717 4.21885H12.4818C13.4505 4.21885 13.8533 5.45846 13.0696 6.02786L10.8572 7.63525C10.5067 7.8899 10.3601 8.34127 10.494 8.75329L11.339 11.3541C11.6384 12.2754 10.5839 13.0415 9.80017 12.4721L7.58779 10.8647C7.2373 10.6101 6.7627 10.6101 6.41222 10.8647L4.19983 12.4721C3.41612 13.0415 2.36164 12.2754 2.66099 11.3541L3.50604 8.75329C3.63992 8.34127 3.49326 7.8899 3.14277 7.63525L0.930391 6.02787C0.146677 5.45846 0.549452 4.21885 1.51818 4.21885H4.25283C4.68606 4.21885 5.07001 3.93989 5.20389 3.52786L6.04894 0.927052Z"></path>
    </symbol>
    <symbol  xmlns="http://www.w3.org/2000/svg" viewBox="0 0 60 60" id="sun">
        <path fill="currentColor" fill-rule="evenodd" clip-rule="evenodd" d="M26.7271 25.3227L27.4083 26.021L19.0348 2.02583L28.6289 24.502L29.0121 25.3997L29.0451 24.4247L29.872 0L30.6989 24.4242L30.732 25.3997L31.115 24.5024L40.7093 2.02583L32.6573 25.0994L32.3357 26.021L33.017 25.3227L50.0829 7.82973L34.2395 26.4365L33.6067 27.1797L56.7269 16.6278L35.2319 28.2549L34.3734 28.7193L35.3473 28.6622L59.744 27.2319L34.5321 30.4318L58.7268 38.2099L35.0087 32.3213L34.0614 32.0861L34.8196 32.7L53.8125 48.079L33.8233 34.0201L33.0249 33.4586L33.5101 34.3049L45.665 55.5065L32.1043 35.176L31.5626 34.364L35.3845 59.4892L29.872 34.68L24.3595 59.4892L28.0346 35.329L28.1814 34.364L27.6401 35.1756L14.0791 55.5065L26.2337 34.3054L26.7191 33.4586L25.9212 34.0198L5.93151 48.079L24.9241 32.7003L25.6827 32.0861L24.7358 32.3211L1.01726 38.2099L24.2827 30.7305L25.212 30.4318L0 27.2319L25.3707 28.7193L24.5126 28.2551L3.01713 16.6278L26.1373 27.1797L9.66116 7.82973L26.7271 25.3227ZM28.471 26.3835L27.2592 27.1338L26.4002 28.2712L26.0102 29.6421L26.1417 31.0614L26.777 32.3373L27.8303 33.2975L29.1594 33.8124H30.5847L31.9137 33.2975L32.9671 32.3373L33.6024 31.0614L33.7339 29.6421L33.3438 28.2712L32.4849 27.1338L31.2731 26.3835L29.872 26.1216L28.471 26.3835Z" ></path>
    </symbol>
    <symbol  xmlns="http://www.w3.org/2000/svg" viewBox="0 0 20 20" id="trash">
        <path fill="currentColor" d="M13.3333 4.99996V4.33329C13.3333 3.39987 13.3333 2.93316 13.1517 2.57664C12.9919 2.26304 12.7369 2.00807 12.4233 1.84828C12.0668 1.66663 11.6001 1.66663 10.6667 1.66663H9.33333C8.39991 1.66663 7.9332 1.66663 7.57668 1.84828C7.26308 2.00807 7.00811 2.26304 6.84832 2.57664C6.66667 2.93316 6.66667 3.39987 6.66667 4.33329V4.99996M8.33333 9.58329V13.75M11.6667 9.58329V13.75M2.5 4.99996H17.5M15.8333 4.99996V14.3333C15.8333 15.7334 15.8333 16.4335 15.5608 16.9683C15.3212 17.4387 14.9387 17.8211 14.4683 18.0608C13.9335 18.3333 13.2335 18.3333 11.8333 18.3333H8.16667C6.76654 18.3333 6.06647 18.3333 5.53169 18.0608C5.06129 17.8211 4.67883 17.4387 4.43915 16.9683C4.16667 16.4335 4.16667 15.7334 4.16667 14.3333V4.99996" stroke="#242424" stroke-width="1.5" stroke-linecap="round" stroke-linejoin="round"></path>
    </symbol>
    <symbol xmlns="http://www.w3.org/2000/svg" viewBox="0 0 28 28" id="youtube">

        <path fill-rule="evenodd" clip-rule="evenodd" d="M21.2104 5.24986C20.0203 5.17986 17.5703 5.10986 13.8604 5.10986H13.3703C9.80034 5.10986 7.42038 5.17986 6.23038 5.31986C4.62038 5.45986 3.50034 5.87986 2.87034 6.43986C2.31034 6.92986 1.89036 7.83986 1.75036 9.02986C1.68036 9.79986 1.61035 11.4099 1.61035 13.8599V14.2099C1.61035 16.5199 1.68034 18.1299 1.82034 18.8999C2.03034 20.0199 2.38038 20.8599 3.08038 21.3499C3.78038 21.9099 4.97036 22.2599 6.65036 22.3999C7.84036 22.4699 10.2904 22.5399 14.0004 22.5399H14.4904C18.0604 22.5399 20.4404 22.4699 21.6304 22.3299C23.2404 22.1899 24.3604 21.7699 24.9904 21.2099C25.5504 20.7199 25.9703 19.8099 26.1103 18.6199C26.1803 17.8499 26.2504 16.2399 26.2504 13.7899V13.4399C26.2504 11.1299 26.1804 9.51986 26.0404 8.74986C25.8304 7.62986 25.4804 6.78986 24.7804 6.29986C24.0804 5.73986 22.8904 5.38986 21.2104 5.24986ZM18.4804 13.8599L10.7804 18.4799V9.23986L18.4804 13.8599Z"></path>

    </symbol>
 <symbol  xmlns="http://www.w3.org/2000/svg" viewBox="0 0 32 32" id="close" >
  <path d="M24 8L8 24" stroke="#F4F4F4" stroke-width="2" stroke-linecap="round" stroke-linejoin="round"/>
  <path d="M8 8L24 24" stroke="#F4F4F4" stroke-width="2" stroke-linecap="round" stroke-linejoin="round"/>
</symbol>
  <symbol fill="none" xmlns="http://www.w3.org/2000/svg" viewBox="0 0 20 20" id="burger">
  <path d="M3 6h14" stroke="#242424" stroke-width="1.5" stroke-linecap="round" stroke-linejoin="round"/>
  <path d="M3 10h14" stroke="#242424" stroke-width="1.5" stroke-linecap="round" stroke-linejoin="round"/>
  <path d="M3 14h14" stroke="#242424" stroke-width="1.5" stroke-linecap="round" stroke-linejoin="round"/>
</symbol>


</svg>